FICHA TECNICA:

TÍTULO ORIGINAL	Casino
AÑO	 1995
DURACIÓN	Trailers/Vídeos 173 min.
PAÍS	
DIRECTOR	Martin Scorsese
GUIÓN	Nicholas Pileggi & Martin Scorsese
MÚSICA	Varios
FOTOGRAFÍA	Robert Richardson
REPARTO	Sharon Stone, Robert De Niro, Joe Pesci, James Woods, Don Rickles, Alan King, Kevin Pollak, L.Q. Jones, Dick Smothers, Frank Vincent, John Bloom, Clem Caserta, Melissa Prophet
PRODUCTORA	Universal Pictures
PREMIOS	1995: Nominada al Oscar: Mejor actriz (Sharon Stone)
1995: Globo de Oro: Mejor actriz drama (Sharon Stone). 2 nominaciones
GÉNERO	Thriller. Drama | Mafia. Crimen. Juego. Años 70

SINOPSIS:

Las Vegas, 1973. Sam "Ace" Rothstein, un profesional de las apuestas de carreras de caballos, es director de un importante casino que pertenece a un grupo de mafiosos. Su misión es controlar el funcionamiento del negocio y garantizar que la corriente de dinero que va a parar a manos de sus jefes siga fluyendo. Las Vegas es un lugar ideal para millonarios y políticos, pero es también lugar de paso de tahúres, prestamistas, traficantes de drogas, matones..

Video
ID : 1
Format : AVC
Format/Info : Advanced Video Codec
Format profile : Main@L3.1
Format settings, CABAC : Yes
Format settings, ReFrames : 2 frames
Codec ID : V_MPEG4/ISO/AVC
Duration : 2h 58mn
Bit rate : 2 686 Kbps
Width : 1 280 pixels
Height : 544 pixels
Display aspect ratio : 2.35:1
Frame rate : 23.976 fps
Color space : YUV
Chroma subsampling : 4:2:0
Bit depth : 8 bits
Scan type : Progressive
Bits/(Pixel*Frame) : 0.161
Stream size : 3.27 GiB (79%)

Audio #1
ID : 2
Format : AC-3
Format/Info : Audio Coding 3
Mode extension : CM (complete main)
Codec ID : A_AC3
Duration : 2h 58mn
Bit rate mode : Constant
Bit rate : 320 Kbps
Channel(s) : 6 channels
Channel positions : Front: L C R, Side: L R, LFE
Sampling rate : 48.0 KHz
Bit depth : 16 bits
Compression mode : Lossy
Stream size : 408 MiB (10%)
Language : Spanish
Default : Yes
Forced : No

Audio #2
ID : 3
Format : AC-3
Format/Info : Audio Coding 3
Mode extension : CM (complete main)
Codec ID : A_AC3
Duration : 2h 58mn
Bit rate mode : Constant
Bit rate : 320 Kbps
Channel(s) : 6 channels
Channel positions : Front: L C R, Side: L R, LFE
Sampling rate : 48.0 KHz
Bit depth : 16 bits
Compression mode : Lossy
Stream size : 408 MiB (10%)
Language : English
Default : No
Forced : No

Text #1
ID : 4
Format : UTF-8
Codec ID : S_TEXT/UTF8
Codec ID/Info : UTF-8 Plain Text
Language : Spanish
Default : No
Forced : No

Text #2
ID : 5
Format : UTF-8
Codec ID : S_TEXT/UTF8
Codec ID/Info : UTF-8 Plain Text
Language : English
Default : No
Forced : No